<svg xmlns="http://www.w3.org/2000/svg" xmlns:xlink="http://www.w3.org/1999/xlink" width="1024" zoomAndPan="magnify" viewBox="0 0 768 576" height="768" preserveAspectRatio="xMidYMid meet" version="1.0"><defs><clipPath id="bb03807085"><path d="M 273 153 L 561.414062 153 L 561.414062 434 L 273 434 Z M 273 153 " clip-rule="nonzero"/></clipPath></defs><path fill="#012828" d="M 425.675781 305.601562 L 426.75 331.117188 C 420.195312 327.167969 413.339844 322.875 406.652344 318.644531 L 406.199219 313.695312 C 405.859375 309.855469 409.835938 304.832031 415.222656 302.480469 C 417.050781 301.6875 418.800781 301.292969 420.328125 301.292969 C 423.398438 301.292969 425.5625 302.855469 425.675781 305.601562 Z M 425.675781 305.601562 " fill-opacity="1" fill-rule="nonzero"/><path fill="#012828" d="M 428.144531 364.125 C 428.277344 367.097656 424.511719 370.503906 419.855469 371.726562 C 418.707031 372.027344 417.617188 372.160156 416.597656 372.160156 C 413.585938 372.160156 411.378906 370.898438 411.191406 368.773438 L 408.308594 336.878906 C 410.890625 338.609375 413.472656 340.300781 415.976562 341.957031 C 419.5 344.273438 423.378906 346.585938 427.503906 348.863281 Z M 428.144531 364.125 " fill-opacity="1" fill-rule="nonzero"/><path fill="#b2f0b9" d="M 415.96875 302.1875 C 412.207031 311.332031 413.769531 315.527344 415.96875 336.878906 C 418.171875 358.230469 418.230469 366.253906 418.230469 366.253906 L 418.230469 375.457031 C 418.230469 375.457031 408.625 370.277344 409.257812 356.023438 C 409.890625 341.765625 406.1875 308.5625 406.1875 308.5625 C 406.1875 308.5625 409.765625 304.828125 415.96875 302.1875 Z M 415.96875 302.1875 " fill-opacity="1" fill-rule="nonzero"/><path fill="#4cbf5a" d="M 510.707031 400.3125 L 428.617188 424.226562 L 332.304688 409.511719 L 445.683594 383 Z M 510.707031 400.3125 " fill-opacity="1" fill-rule="nonzero"/><path fill="#004437" d="M 510.707031 400.3125 L 428.617188 424.226562 L 332.304688 409.511719 L 445.683594 383 Z M 510.707031 400.3125 " fill-opacity="1" fill-rule="nonzero"/><path fill="#4cbf5a" d="M 517.5625 386.800781 L 510.707031 400.3125 L 445.683594 383 L 444.136719 357.292969 C 448.28125 359.25 452.539062 361.171875 456.816406 363.050781 L 456.929688 366.15625 C 456.964844 367.285156 457.71875 368.492188 458.90625 369.527344 C 460.074219 370.578125 461.675781 371.464844 463.410156 371.972656 C 466.816406 372.933594 469.625 372.085938 469.792969 369.996094 L 469.886719 368.585938 C 473.222656 369.941406 476.519531 371.257812 479.738281 372.535156 L 479.683594 372.949219 C 479.664062 373.082031 479.644531 373.195312 479.644531 373.328125 C 479.644531 375.191406 481.773438 377.222656 484.582031 378.03125 C 487.238281 378.785156 489.722656 378.238281 490.550781 376.769531 C 493.585938 377.9375 496.484375 379.046875 499.253906 380.101562 C 499.558594 381.4375 501.007812 382.71875 502.984375 383.28125 C 504.546875 383.734375 506.128906 383.660156 507.300781 383.167969 C 508.957031 383.789062 510.519531 384.390625 511.96875 384.957031 C 513.910156 385.710938 515.777344 386.332031 517.566406 386.800781 Z M 517.5625 386.800781 " fill-opacity="1" fill-rule="nonzero"/><path fill="#012828" d="M 526.925781 341.542969 C 526.925781 342.410156 526.738281 343.277344 526.363281 344.085938 L 513.648438 371.578125 C 510.445312 370.355469 506.996094 369.035156 503.363281 367.605469 L 513.949219 338.15625 C 515.191406 334.714844 519.222656 333.300781 522.820312 335.125 C 525.417969 336.445312 526.925781 339.023438 526.925781 341.542969 Z M 526.925781 341.542969 " fill-opacity="1" fill-rule="nonzero"/><path fill="#012828" d="M 479.738281 372.535156 C 483.449219 374.003906 487.085938 375.414062 490.550781 376.769531 C 489.722656 378.238281 487.238281 378.785156 484.582031 378.03125 C 481.773438 377.222656 479.644531 375.191406 479.644531 373.328125 C 479.644531 373.195312 479.664062 373.082031 479.683594 372.949219 Z M 479.738281 372.535156 " fill-opacity="1" fill-rule="nonzero"/><path fill="#012828" d="M 502.851562 330.988281 C 502.851562 331.589844 502.777344 332.171875 502.625 332.738281 L 494.113281 363.9375 C 490.195312 362.355469 486.125 360.699219 482 358.949219 L 487.539062 325.550781 C 488.234375 321.390625 492.492188 319.734375 496.882812 321.972656 C 500.515625 323.816406 502.851562 327.601562 502.851562 330.988281 Z M 502.851562 330.988281 " fill-opacity="1" fill-rule="nonzero"/><path fill="#012828" d="M 456.816406 363.050781 C 461.167969 364.953125 465.554688 366.796875 469.886719 368.566406 L 469.886719 368.585938 L 469.792969 369.996094 C 469.625 372.085938 466.816406 372.929688 463.40625 371.972656 C 461.675781 371.464844 460.074219 370.578125 458.90625 369.527344 C 457.71875 368.492188 456.964844 367.285156 456.929688 366.15625 Z M 456.816406 363.050781 " fill-opacity="1" fill-rule="nonzero"/><path fill="#012828" d="M 473.675781 318.34375 C 473.675781 318.53125 473.675781 318.71875 473.65625 318.90625 L 470.980469 354.171875 C 466.046875 351.96875 461.109375 349.691406 456.269531 347.320312 L 454.949219 309.988281 C 454.78125 304.886719 459.265625 302.875 464.785156 305.679688 C 469.886719 308.273438 473.675781 313.882812 473.675781 318.34375 Z M 473.675781 318.34375 " fill-opacity="1" fill-rule="nonzero"/><path fill="#ff7d7d" d="M 329.476562 339.757812 C 330.457031 339.34375 331.4375 339.136719 332.339844 339.117188 C 330.082031 342.710938 327.859375 346.265625 325.746094 349.710938 L 325.050781 347.507812 C 324.164062 344.6875 326.105469 341.222656 329.476562 339.757812 Z M 329.476562 339.757812 " fill-opacity="1" fill-rule="nonzero"/><path fill="#012828" d="M 353.964844 329.125 C 357.882812 327.523438 361.613281 328.785156 362.273438 332.003906 L 372.144531 379.519531 C 372.652344 382 370.144531 384.75 366.605469 385.671875 C 365.8125 385.878906 365.023438 385.972656 364.289062 385.972656 C 361.800781 385.972656 359.785156 384.863281 359.332031 383.035156 L 348.425781 338.945312 L 348.3125 338.890625 Z M 353.964844 329.125 " fill-opacity="1" fill-rule="nonzero"/><path fill="#012828" d="M 349.367188 385.765625 C 350.007812 388.0625 347.957031 390.5625 344.828125 391.371094 C 344.152344 391.5625 343.472656 391.636719 342.832031 391.636719 C 340.574219 391.636719 338.632812 390.582031 338.085938 388.871094 L 331.511719 368.039062 L 331.511719 368.019531 L 340.214844 352.945312 Z M 349.367188 385.765625 " fill-opacity="1" fill-rule="nonzero"/><path fill="#004437" d="M 306.15625 336.992188 L 346.46875 317.023438 C 342.078125 323.816406 337.125 331.515625 332.339844 339.117188 C 331.4375 339.136719 330.457031 339.34375 329.476562 339.757812 C 326.105469 341.222656 324.164062 344.6875 325.050781 347.507812 L 325.746094 349.710938 L 325.746094 349.730469 C 322.207031 355.488281 318.984375 360.871094 316.402344 365.421875 L 308.53125 343.558594 Z M 306.15625 336.992188 " fill-opacity="1" fill-rule="nonzero"/><path fill="#147c3e" d="M 353.964844 329.125 L 366.113281 308.03125 C 370.070312 310.796875 374.929688 314.164062 380.261719 317.832031 C 376.683594 320.054688 374.382812 323.761719 374.910156 326.734375 L 383.484375 376.394531 C 383.820312 378.351562 385.933594 379.535156 388.664062 379.535156 C 389.527344 379.535156 390.453125 379.425781 391.394531 379.179688 C 395.425781 378.125 398.496094 375.078125 398.136719 372.367188 L 392.167969 325.980469 C 397.460938 329.59375 402.921875 333.285156 408.308594 336.878906 L 411.191406 368.773438 C 411.378906 370.898438 413.585938 372.160156 416.597656 372.160156 C 417.617188 372.160156 418.707031 372.027344 419.855469 371.726562 C 424.511719 370.503906 428.277344 367.097656 428.144531 364.125 L 427.503906 348.863281 C 432.703125 351.722656 438.316406 354.566406 444.136719 357.292969 L 445.683594 383 L 332.300781 409.511719 L 327.855469 397.132812 L 327.839844 397.132812 L 322.808594 383.132812 L 331.511719 368.039062 L 338.085938 388.871094 C 338.632812 390.582031 340.570312 391.636719 342.832031 391.636719 C 343.472656 391.636719 344.152344 391.5625 344.828125 391.375 C 347.957031 390.566406 350.007812 388.0625 349.367188 385.765625 L 340.214844 352.949219 L 348.3125 338.890625 L 348.425781 338.949219 L 359.332031 383.039062 C 359.785156 384.863281 361.800781 385.972656 364.289062 385.972656 C 365.023438 385.972656 365.8125 385.878906 366.605469 385.671875 C 370.144531 384.75 372.652344 382.003906 372.144531 379.519531 L 362.273438 332.003906 C 361.613281 328.785156 357.882812 327.527344 353.964844 329.125 Z M 353.964844 329.125 " fill-opacity="1" fill-rule="nonzero"/><path fill="#012828" d="M 398.136719 372.367188 C 398.496094 375.078125 395.425781 378.125 391.394531 379.179688 C 390.453125 379.421875 389.53125 379.535156 388.664062 379.535156 C 385.929688 379.535156 383.820312 378.351562 383.484375 376.394531 L 374.910156 326.734375 C 374.382812 323.761719 376.683594 320.054688 380.261719 317.832031 C 384.027344 320.410156 388.042969 323.160156 392.167969 325.980469 Z M 398.136719 372.367188 " fill-opacity="1" fill-rule="nonzero"/><path fill="#2c3c60" d="M 322.808594 383.128906 L 327.839844 397.132812 C 315.820312 399.503906 304.234375 391.597656 311.355469 375.152344 C 312.375 372.78125 314.144531 369.429688 316.40625 365.421875 C 318.984375 360.871094 322.207031 355.488281 325.746094 349.730469 L 325.746094 349.710938 C 327.859375 346.265625 330.082031 342.710938 332.339844 339.117188 C 337.125 331.515625 342.078125 323.816406 346.46875 317.023438 L 346.488281 317.023438 C 352.308594 308.046875 357.207031 300.632812 359.523438 297.132812 C 358.410156 299.902344 359.238281 303.230469 361.878906 305.074219 C 363.140625 305.960938 364.550781 306.957031 366.117188 308.03125 L 353.964844 329.125 L 348.316406 338.890625 L 340.214844 352.945312 L 331.511719 368.019531 L 331.511719 368.039062 Z M 322.808594 383.128906 " fill-opacity="1" fill-rule="nonzero"/><path fill="#2c3c60" d="M 406.652344 318.644531 C 413.339844 322.878906 420.195312 327.167969 426.75 331.121094 C 432.589844 334.636719 438.167969 337.875 443.121094 340.585938 C 443.988281 341.054688 444.855469 341.523438 445.683594 341.957031 C 449.128906 343.785156 452.671875 345.570312 456.269531 347.320312 C 461.109375 349.691406 466.046875 351.96875 470.980469 354.171875 C 474.671875 355.808594 478.363281 357.40625 482 358.949219 C 486.125 360.699219 490.195312 362.355469 494.113281 363.9375 C 497.296875 365.214844 500.382812 366.441406 503.359375 367.605469 C 506.996094 369.035156 510.441406 370.355469 513.644531 371.578125 C 517.28125 372.949219 520.578125 374.210938 523.441406 375.285156 L 528.039062 366.25 C 545.574219 381.570312 536.589844 391.898438 517.5625 386.800781 C 515.773438 386.328125 513.910156 385.707031 511.96875 384.957031 C 510.519531 384.390625 508.957031 383.789062 507.296875 383.167969 C 504.8125 382.207031 502.117188 381.191406 499.253906 380.101562 C 496.484375 379.046875 493.585938 377.9375 490.550781 376.769531 C 487.085938 375.414062 483.449219 374.003906 479.738281 372.535156 C 476.519531 371.257812 473.222656 369.941406 469.886719 368.585938 L 469.886719 368.566406 C 465.554688 366.796875 461.164062 364.953125 456.816406 363.050781 C 452.539062 361.171875 448.28125 359.25 444.136719 357.292969 C 438.316406 354.566406 432.703125 351.722656 427.503906 348.863281 C 423.378906 346.585938 419.5 344.273438 415.976562 341.957031 C 413.472656 340.300781 410.890625 338.609375 408.308594 336.878906 C 402.921875 333.285156 397.460938 329.59375 392.164062 325.980469 C 388.039062 323.160156 384.027344 320.414062 380.261719 317.835938 C 374.929688 314.164062 370.070312 310.796875 366.113281 308.03125 C 364.550781 306.957031 363.136719 305.960938 361.875 305.074219 C 359.238281 303.230469 358.410156 299.902344 359.519531 297.136719 C 359.539062 297.117188 359.558594 297.097656 359.558594 297.078125 C 360.351562 295.894531 360.839844 295.160156 360.953125 294.972656 C 360.972656 294.953125 360.992188 294.933594 360.992188 294.933594 C 362.273438 293.652344 363.984375 292.996094 365.679688 292.996094 C 366.980469 292.996094 368.261719 293.371094 369.390625 294.144531 C 371.933594 295.855469 375.402344 298.1875 379.546875 300.953125 C 387.003906 305.921875 396.613281 312.226562 406.652344 318.644531 Z M 406.652344 318.644531 " fill-opacity="1" fill-rule="nonzero"/><path fill="#147c3e" d="M 415.222656 302.480469 C 409.835938 304.832031 405.859375 309.855469 406.199219 313.695312 L 406.652344 318.644531 C 396.613281 312.226562 387.003906 305.921875 379.546875 300.953125 L 379.828125 300.539062 L 433.851562 273.78125 L 439.277344 276.53125 L 443.121094 340.585938 C 438.167969 337.875 432.589844 334.636719 426.75 331.121094 L 425.675781 305.601562 C 425.5625 302.855469 423.398438 301.292969 420.328125 301.292969 C 418.800781 301.292969 417.050781 301.6875 415.222656 302.480469 Z M 415.222656 302.480469 " fill-opacity="1" fill-rule="nonzero"/><path fill="#ff7d7d" d="M 433.851562 247.796875 L 433.851562 273.78125 L 379.828125 300.539062 L 379.546875 300.953125 C 375.402344 298.1875 371.9375 295.855469 369.394531 294.144531 C 368.261719 293.371094 366.980469 292.996094 365.683594 292.996094 C 363.988281 292.996094 362.273438 293.652344 360.992188 294.933594 C 360.992188 294.933594 360.972656 294.953125 360.953125 294.972656 C 360.332031 295.609375 359.859375 296.324219 359.558594 297.078125 C 359.558594 297.097656 359.542969 297.117188 359.523438 297.136719 C 357.207031 300.636719 352.308594 308.050781 346.488281 317.023438 L 346.46875 317.023438 L 306.15625 336.992188 L 299.46875 340.300781 L 292.5 323.234375 L 332.304688 301.988281 L 351.195312 291.902344 L 368.847656 282.496094 L 382.109375 275.417969 L 383.746094 274.535156 L 403.167969 264.1875 L 403.167969 264.167969 Z M 433.851562 247.796875 " fill-opacity="1" fill-rule="nonzero"/><path fill="#4cbf5a" d="M 558.234375 314.183594 L 550.171875 332.585938 L 546.195312 330.574219 L 439.277344 276.53125 L 433.851562 273.78125 L 433.851562 247.796875 L 445.683594 254.117188 L 470.09375 267.140625 L 523.949219 295.894531 Z M 558.234375 314.183594 " fill-opacity="1" fill-rule="nonzero"/><path fill="#4cbf5a" d="M 546.195312 330.574219 L 544.257812 334.394531 L 528.039062 366.25 L 523.441406 375.285156 C 520.578125 374.210938 517.28125 372.949219 513.644531 371.578125 L 526.359375 344.085938 C 526.738281 343.273438 526.925781 342.410156 526.925781 341.542969 C 526.925781 339.023438 525.417969 336.445312 522.820312 335.128906 C 519.222656 333.300781 515.191406 334.714844 513.949219 338.15625 L 503.359375 367.605469 C 500.386719 366.441406 497.296875 365.214844 494.113281 363.9375 L 502.625 332.738281 C 502.777344 332.171875 502.851562 331.589844 502.851562 330.988281 C 502.851562 327.601562 500.515625 323.816406 496.882812 321.972656 C 492.492188 319.734375 488.234375 321.390625 487.539062 325.550781 L 482 358.949219 C 478.363281 357.40625 474.671875 355.808594 470.980469 354.171875 L 473.65625 318.90625 C 473.675781 318.71875 473.675781 318.53125 473.675781 318.34375 C 473.675781 313.882812 469.886719 308.273438 464.78125 305.679688 C 459.265625 302.875 454.78125 304.886719 454.949219 309.988281 L 456.269531 347.320312 C 452.671875 345.570312 449.128906 343.785156 445.683594 341.957031 C 444.855469 341.523438 443.988281 341.054688 443.121094 340.585938 L 439.277344 276.527344 Z M 546.195312 330.574219 " fill-opacity="1" fill-rule="nonzero"/><path fill="#5f9e47" d="M 553.089844 257.976562 C 553.089844 257.976562 536.703125 267.742188 520.578125 252.085938 C 521.199219 251.464844 521.691406 250.769531 521.933594 249.941406 C 540.566406 240.230469 552.113281 251.785156 553.089844 257.976562 Z M 553.089844 257.976562 " fill-opacity="1" fill-rule="nonzero"/><path fill="#5f9e47" d="M 521.933594 249.941406 C 521.691406 250.769531 521.199219 251.464844 520.578125 252.085938 C 518.65625 254.023438 515.566406 255.398438 514.550781 258.597656 L 514.550781 258.613281 C 513.703125 258.425781 512.835938 258.296875 511.96875 258.238281 L 511.96875 258.164062 C 511.515625 257.261719 510.953125 256.433594 510.292969 255.660156 C 510.292969 255.660156 511.96875 244.765625 516.359375 242.921875 C 519.84375 241.472656 522.253906 244.484375 522.140625 248.792969 C 522.121094 249.207031 522.066406 249.582031 521.933594 249.941406 Z M 521.933594 249.941406 " fill-opacity="1" fill-rule="nonzero"/><path fill="#ea3c25" d="M 510.292969 255.660156 C 510.953125 256.433594 511.515625 257.261719 511.96875 258.164062 L 511.96875 258.238281 C 512.835938 258.296875 513.703125 258.425781 514.550781 258.613281 C 529.601562 261.71875 542.203125 280.105469 523.949219 295.894531 L 470.09375 267.140625 C 470.09375 267.140625 470.09375 261.34375 474.164062 256.113281 C 477.007812 252.480469 481.851562 250.167969 487.179688 249.261719 L 487.199219 249.242188 C 495.695312 247.796875 505.433594 249.847656 510.292969 255.660156 Z M 510.292969 255.660156 " fill-opacity="1" fill-rule="nonzero"/><path fill="#7cbd33" d="M 515.472656 205.566406 C 520.03125 198.078125 515.832031 191.550781 509.125 192.246094 C 513.929688 188.933594 518.921875 184.078125 522.140625 178.921875 C 535.027344 180.011719 536.4375 194.632812 519.242188 203.78125 C 518.074219 204.402344 516.8125 205.003906 515.472656 205.566406 Z M 515.472656 205.566406 " fill-opacity="1" fill-rule="nonzero"/><path fill="#7cbd33" d="M 519.242188 203.78125 C 527.546875 209.292969 524.929688 221.394531 497.972656 222.222656 C 497.410156 221.09375 496.691406 220 495.847656 218.949219 C 506.621094 215.089844 512.6875 210.140625 515.472656 205.570312 C 516.8125 205.003906 518.074219 204.402344 519.242188 203.78125 Z M 519.242188 203.78125 " fill-opacity="1" fill-rule="nonzero"/><path fill="#7cbd33" d="M 476.839844 182.085938 C 477.648438 166.144531 490.042969 164.132812 493.621094 176.34375 C 492.757812 179.148438 492.078125 182.140625 491.605469 185.226562 C 489.96875 177.246094 479.664062 178.28125 477.402344 190.777344 C 476.859375 187.523438 476.6875 184.625 476.839844 182.082031 Z M 476.839844 182.085938 " fill-opacity="1" fill-rule="nonzero"/><path fill="#7cbd33" d="M 477.402344 190.777344 C 476.667969 194.765625 476.761719 199.921875 478.234375 206.339844 C 476.273438 205.625 474.390625 205.25 472.542969 205.285156 C 467.742188 197.402344 467.117188 190.4375 468.285156 185.753906 L 468.285156 185.734375 C 469.851562 179.542969 474.539062 177.324219 476.839844 182.082031 C 476.6875 184.625 476.859375 187.523438 477.402344 190.777344 Z M 477.402344 190.777344 " fill-opacity="1" fill-rule="nonzero"/><path fill="#7cbd33" d="M 486.691406 211.027344 C 485.976562 210.515625 485.238281 210.027344 484.488281 209.539062 C 482.339844 208.144531 480.265625 207.054688 478.234375 206.339844 C 476.761719 199.921875 476.667969 194.765625 477.402344 190.777344 C 479.664062 178.28125 489.96875 177.246094 491.605469 185.226562 C 492.078125 182.140625 492.757812 179.148438 493.621094 176.34375 C 498.351562 160.96875 508.636719 151.054688 520.578125 159.464844 C 527.605469 164.414062 526.492188 171.941406 522.140625 178.921875 C 518.921875 184.078125 513.929688 188.933594 509.125 192.246094 C 515.832031 191.550781 520.03125 198.078125 515.472656 205.570312 C 512.6875 210.140625 506.621094 215.089844 495.847656 218.949219 C 493.625 216.179688 490.457031 213.585938 486.691406 211.027344 Z M 486.691406 211.027344 " fill-opacity="1" fill-rule="nonzero"/><path fill="#f25c05" d="M 478.234375 206.339844 C 480.265625 207.054688 482.339844 208.144531 484.488281 209.539062 C 485.242188 210.027344 485.976562 210.515625 486.691406 211.027344 C 490.457031 213.585938 493.621094 216.179688 495.84375 218.949219 C 496.691406 220 497.410156 221.09375 497.972656 222.222656 C 501.441406 229.089844 499.160156 237.332031 487.199219 249.242188 L 487.179688 249.261719 C 481.847656 250.167969 477.007812 252.480469 474.164062 256.113281 C 470.09375 261.34375 470.09375 267.140625 470.09375 267.140625 L 445.683594 254.117188 C 453.3125 217.949219 462.183594 205.417969 472.542969 205.285156 C 474.390625 205.25 476.273438 205.625 478.230469 206.339844 Z M 478.234375 206.339844 " fill-opacity="1" fill-rule="nonzero"/><path fill="#e2a85e" d="M 468.285156 185.734375 L 468.285156 185.753906 C 467.121094 190.4375 467.742188 197.402344 472.542969 205.285156 C 462.183594 205.417969 453.3125 217.949219 445.683594 254.117188 L 433.851562 247.796875 L 403.167969 264.167969 C 403.355469 263.261719 409.496094 234.039062 415.976562 206.359375 C 416.917969 202.277344 417.878906 198.25 418.820312 194.335938 C 426.316406 163.417969 465.253906 162.023438 468.285156 185.734375 Z M 468.285156 185.734375 " fill-opacity="1" fill-rule="nonzero"/><path fill="#59b1f0" d="M 372.273438 215.636719 L 415.976562 206.359375 C 409.496094 234.039062 403.355469 263.261719 403.167969 264.167969 L 403.167969 264.183594 L 383.746094 274.535156 C 383.746094 274.535156 390.433594 257.410156 388.964844 239.871094 C 387.496094 222.351562 376.4375 227.472656 376.4375 227.472656 C 376.25 222.523438 374.59375 218.496094 372.273438 215.636719 Z M 372.273438 215.636719 " fill-opacity="1" fill-rule="nonzero"/><path fill="#59b1f0" d="M 398.796875 183.53125 L 401.246094 193.242188 C 387.25 195.574219 359.691406 201.445312 359.691406 201.445312 L 356.472656 192.1875 Z M 398.796875 183.53125 " fill-opacity="1" fill-rule="nonzero"/><path fill="#59b1f0" d="M 415.976562 206.359375 L 372.273438 215.636719 L 372.160156 215.503906 C 372.011719 215.316406 371.859375 215.144531 371.691406 214.976562 L 359.691406 201.445312 C 359.691406 201.445312 387.25 195.578125 401.246094 193.242188 Z M 415.976562 206.359375 " fill-opacity="1" fill-rule="nonzero"/><path fill="#156393" d="M 359.691406 201.445312 L 371.691406 214.976562 C 365.585938 208.222656 355.660156 209.199219 355.378906 222.222656 C 354.285156 220.226562 352.910156 218.421875 351.195312 217.007812 Z M 359.691406 201.445312 " fill-opacity="1" fill-rule="nonzero"/><path fill="#7cbd33" d="M 383.746094 274.535156 L 382.109375 275.417969 C 381.597656 231.386719 363.570312 231.628906 359.691406 245.988281 C 359.691406 245.988281 360.691406 231.820312 355.378906 222.222656 C 355.660156 209.199219 365.585938 208.222656 371.691406 214.976562 L 372.160156 215.503906 L 372.273438 215.636719 C 374.59375 218.496094 376.25 222.523438 376.4375 227.472656 C 376.4375 227.472656 387.496094 222.355469 388.964844 239.871094 C 390.433594 257.410156 383.746094 274.535156 383.746094 274.535156 Z M 383.746094 274.535156 " fill-opacity="1" fill-rule="nonzero"/><path fill="#7cbd33" d="M 351.195312 291.902344 L 332.304688 301.988281 C 302.691406 311.472656 308.324219 293.597656 308.324219 293.597656 C 291.933594 296.210938 289.449219 272.632812 302.238281 272.503906 C 307.496094 277 316.59375 279.859375 323.449219 277.019531 C 323.449219 277.019531 309.886719 299.882812 351.195312 291.902344 Z M 351.195312 291.902344 " fill-opacity="1" fill-rule="nonzero"/><path fill="#7cbb33" d="M 368.847656 282.496094 L 351.195312 291.902344 C 309.886719 299.882812 323.449219 277.019531 323.449219 277.019531 C 316.59375 279.859375 307.496094 277 302.238281 272.503906 C 296.25 267.367188 295.269531 260.101562 308.285156 256.714844 C 295.082031 254.457031 275.621094 248.113281 277.410156 230.539062 C 280.050781 204.835938 312.84375 199.019531 337.484375 231.554688 C 332.679688 222.878906 334.414062 208.804688 347.9375 214.941406 C 349.144531 215.484375 350.214844 216.179688 351.195312 217.007812 C 352.910156 218.421875 354.285156 220.226562 355.378906 222.222656 C 360.691406 231.820312 359.691406 245.988281 359.691406 245.988281 C 363.570312 231.632812 381.597656 231.386719 382.109375 275.417969 Z M 368.847656 282.496094 " fill-opacity="1" fill-rule="nonzero"/><path fill="#8ee06c" d="M 514.589844 244.285156 C 520.0625 245.1875 518.523438 248.003906 516.21875 250.582031 C 513.917969 253.164062 511.960938 258.160156 511.960938 258.160156 C 511.960938 258.160156 512.175781 260.109375 517.054688 255.023438 C 521.933594 249.941406 523.265625 249.445312 521.847656 246.152344 C 520.429688 242.855469 516.855469 242.644531 514.589844 244.285156 Z M 514.589844 244.285156 " fill-opacity="1" fill-rule="nonzero"/><path fill="#8ee06c" d="M 524.734375 251.332031 C 542.050781 248.992188 546.964844 253.53125 549.542969 259.175781 L 553.09375 257.972656 C 553.09375 257.972656 550.890625 252.527344 545.671875 248.796875 C 540.453125 245.0625 528.300781 246.433594 524.734375 251.332031 Z M 524.734375 251.332031 " fill-opacity="1" fill-rule="nonzero"/><path fill="#d6ff7d" d="M 302.972656 210.199219 C 325.34375 217.511719 340.269531 239.875 340.269531 239.875 C 340.269531 239.875 340.699219 237.320312 336.707031 230.546875 C 336.707031 230.546875 333.636719 219.09375 344.140625 218.949219 C 354.644531 218.800781 359.683594 245.992188 359.683594 245.992188 C 359.683594 245.992188 369.9375 235.980469 373.992188 252.425781 C 378.046875 268.871094 377.777344 278.191406 377.777344 278.191406 C 377.777344 278.191406 382.171875 277.839844 381.179688 266.480469 C 380.183594 255.121094 376.828125 242.429688 372.277344 238.898438 C 367.726562 235.367188 361 241.996094 361 241.996094 C 361 241.996094 361.460938 233.21875 353.90625 221.867188 C 346.351562 210.515625 337.136719 213.832031 335.664062 218.066406 C 334.1875 222.296875 335.089844 229.699219 335.089844 229.699219 C 335.089844 229.699219 322.980469 211.171875 302.972656 210.199219 Z M 302.972656 210.199219 " fill-opacity="1" fill-rule="nonzero"/><path fill="#004437" d="M 427.902344 358.316406 C 429.40625 359.34375 430.285156 359.949219 430.285156 359.949219 C 439.375 369.050781 432.140625 385.980469 432.140625 385.980469 L 445.675781 383 L 445.574219 381.164062 L 444.136719 357.292969 C 443.296875 356.902344 442.472656 356.5 441.644531 356.101562 C 439.683594 355.214844 436.53125 353.699219 431.851562 351.207031 C 431.78125 351.167969 431.683594 351.113281 431.605469 351.070312 C 430.214844 350.335938 428.84375 349.601562 427.503906 348.863281 L 427.902344 358.3125 Z M 427.902344 358.316406 " fill-opacity="1" fill-rule="nonzero"/><path fill="#004437" d="M 408.308594 336.878906 C 402.921875 333.28125 397.460938 329.59375 392.167969 325.980469 L 393.332031 335.03125 C 398.488281 338.421875 403.96875 342.085938 409.09375 345.539062 Z M 408.308594 336.878906 " fill-opacity="1" fill-rule="nonzero"/><path fill="#004437" d="M 357.828125 323.355469 C 357.828125 323.355469 362.289062 316.28125 374.835938 323.355469 C 374.976562 323.4375 375.140625 323.53125 375.285156 323.617188 C 376.0625 321.5 377.820312 319.386719 380.160156 317.90625 C 372.46875 312.808594 367.078125 309.214844 367.078125 309.214844 Z M 357.828125 323.355469 " fill-opacity="1" fill-rule="nonzero"/><path fill="#d64b05" d="M 493.617188 217.011719 C 480.234375 207.167969 471.570312 222.988281 465.585938 235.132812 C 459.605469 247.28125 456.738281 258.816406 460.75 262.160156 L 445.671875 254.113281 C 445.671875 254.113281 450.207031 226.632812 457.945312 214.960938 C 465.683594 203.285156 473.316406 200.582031 480.796875 206.351562 C 488.277344 212.121094 493.617188 217.011719 493.617188 217.011719 Z M 493.617188 217.011719 " fill-opacity="1" fill-rule="nonzero"/><path fill="#3088bf" d="M 400.082031 210.199219 C 398.054688 235.867188 388.964844 239.875 388.964844 239.875 L 384.605469 273.789062 L 404.136719 263.660156 L 416.570312 203.785156 Z M 400.082031 210.199219 " fill-opacity="1" fill-rule="nonzero"/><path fill="#012828" d="M 319.925781 257.972656 C 300.535156 260.277344 299.46875 265.136719 299.46875 265.136719 C 299.46875 265.136719 302.601562 258.246094 305.183594 256.722656 C 307.761719 255.199219 319.925781 257.972656 319.925781 257.972656 Z M 319.925781 257.972656 " fill-opacity="1" fill-rule="nonzero"/><path fill="#619917" d="M 323.429688 218.953125 C 293.574219 203.652344 280.671875 228.5 301.3125 237.0625 C 321.953125 245.625 347.703125 263.28125 355.375 272.492188 C 363.042969 281.707031 364.886719 284.46875 364.886719 284.46875 C 364.886719 284.46875 362.578125 290.402344 348.898438 293.140625 C 335.21875 295.878906 311.496094 293.671875 323.449219 277.011719 C 323.449219 277.011719 309.238281 278.695312 302.234375 270.074219 C 295.230469 261.457031 300.945312 254.121094 319.925781 257.972656 C 319.925781 257.972656 288.269531 252.773438 283.4375 238.789062 C 278.605469 224.804688 288.597656 210.117188 302.972656 210.199219 C 317.34375 210.28125 323.429688 218.953125 323.429688 218.953125 Z M 323.429688 218.953125 " fill-opacity="1" fill-rule="nonzero"/><path fill="#cc2e1d" d="M 511.960938 258.160156 C 500.511719 259.800781 495.933594 256.421875 489.195312 262.160156 C 482.453125 267.898438 492.140625 278.914062 492.800781 279.265625 C 493.460938 279.617188 470.84375 267.148438 470.84375 267.148438 C 470.84375 267.148438 471.6875 247.957031 489.046875 247.804688 C 506.410156 247.652344 511.960938 258.160156 511.960938 258.160156 Z M 511.960938 258.160156 " fill-opacity="1" fill-rule="nonzero"/><path fill="#619917" d="M 525.144531 165.417969 C 519.308594 153.949219 508.902344 166.835938 497.980469 184.324219 C 487.0625 201.8125 485.199219 207.703125 485.199219 207.703125 C 485.199219 207.703125 473.976562 208.070312 479.136719 190.953125 C 484.296875 173.832031 491.390625 184.382812 491.390625 184.382812 C 491.390625 184.382812 495.683594 162.789062 508.324219 158.183594 C 520.96875 153.582031 525.144531 165.417969 525.144531 165.417969 Z M 525.144531 165.417969 " fill-opacity="1" fill-rule="nonzero"/><path fill="#b2f0b9" d="M 385.5625 323.683594 C 380.867188 319.960938 382.121094 328.367188 385.5625 348.6875 C 389.007812 369.011719 391.394531 379.179688 391.394531 379.179688 C 391.394531 379.179688 386.570312 384.5625 382.875 372.859375 C 379.179688 361.15625 374.835938 324.648438 374.835938 324.648438 C 374.835938 324.648438 377.761719 316.984375 379.820312 316.734375 C 381.878906 316.484375 385.5625 323.683594 385.5625 323.683594 Z M 385.5625 323.683594 " fill-opacity="1" fill-rule="nonzero"/><path fill="#b2f0b9" d="M 353.117188 330.570312 L 364.886719 378.992188 L 357.828125 375.453125 L 346.792969 338.820312 Z M 353.117188 330.570312 " fill-opacity="1" fill-rule="nonzero"/><path fill="#182844" d="M 366.117188 293.597656 C 366.117188 293.597656 423.773438 329.730469 434.722656 335.847656 C 445.671875 341.964844 448.242188 343.625 448.242188 343.625 C 448.242188 343.625 438.042969 346.714844 444.605469 356.023438 C 444.605469 356.023438 405.292969 339.925781 382.117188 320.980469 C 358.9375 302.03125 354.871094 302.601562 359.53125 297.148438 C 364.191406 291.695312 366.117188 293.601562 366.117188 293.601562 Z M 366.117188 293.597656 " fill-opacity="1" fill-rule="nonzero"/><path fill="#b2f0b9" d="M 336.171875 359.949219 L 341.710938 383.894531 L 336.171875 388.316406 L 330.289062 370.152344 Z M 336.171875 359.949219 " fill-opacity="1" fill-rule="nonzero"/><path fill="#182844" d="M 313.210938 372.542969 C 309.890625 379.324219 317.28125 389.894531 322.800781 383.136719 L 328.589844 397.59375 C 328.589844 397.59375 314.722656 398.3125 311.203125 391.636719 C 307.679688 384.964844 313.210938 372.542969 313.210938 372.542969 Z M 313.210938 372.542969 " fill-opacity="1" fill-rule="nonzero"/><path fill="#b2f0b9" d="M 460.75 304.808594 C 466.054688 306.40625 467.550781 310.839844 466.238281 326.546875 C 464.929688 342.257812 463.71875 351.207031 463.71875 351.207031 L 470.988281 354.183594 C 470.988281 354.183594 474.675781 328.671875 473.5 320.976562 C 472.324219 313.28125 471.5625 305.894531 460.75 304.808594 Z M 460.75 304.808594 " fill-opacity="1" fill-rule="nonzero"/><path fill="#b2f0b9" d="M 495 321.253906 C 500.171875 324.523438 494.535156 337.449219 491.402344 348.6875 C 488.269531 359.929688 487.75 363.046875 487.75 363.046875 L 492.425781 363.949219 C 492.425781 363.949219 500.238281 348.484375 500.886719 339.113281 C 501.535156 329.738281 504.429688 322.835938 494.996094 321.253906 Z M 495 321.253906 " fill-opacity="1" fill-rule="nonzero"/><path fill="#b2f0b9" d="M 520.484375 334.398438 C 523.40625 338.820312 519.226562 346.132812 514.066406 357.203125 C 508.910156 368.273438 507.292969 371.574219 507.292969 371.574219 L 514.371094 372.542969 C 514.371094 372.542969 521.867188 354.050781 524.292969 348.570312 C 526.714844 343.09375 531.570312 337.589844 520.484375 334.398438 Z M 520.484375 334.398438 " fill-opacity="1" fill-rule="nonzero"/><path fill="#147c3e" d="M 292.5 323.242188 L 433.417969 248.800781 L 433.417969 275.414062 L 379.820312 300.53125 L 364.515625 293 C 364.515625 293 358.238281 296.964844 356.082031 301.304688 C 353.929688 305.644531 344.871094 317.832031 344.871094 317.832031 L 299.46875 340.304688 Z M 292.5 323.242188 " fill-opacity="1" fill-rule="nonzero"/><path fill="#b76b37" d="M 417.148438 197.746094 C 439.25 200.695312 449.621094 211.539062 444.300781 214.558594 C 439.476562 217.296875 424.652344 204.910156 413.027344 214.960938 Z M 417.148438 197.746094 " fill-opacity="1" fill-rule="nonzero"/><path fill="#b76b37" d="M 411.640625 225.488281 C 433.742188 228.4375 444.113281 239.28125 438.792969 242.300781 C 433.96875 245.039062 417.679688 232.515625 406.054688 242.566406 Z M 411.640625 225.488281 " fill-opacity="1" fill-rule="nonzero"/><path fill="#c98049" d="M 435.230469 172.601562 C 455.183594 165.734375 461.632812 179.597656 452.601562 206.351562 C 443.574219 233.109375 442.410156 239.179688 428.617188 244.425781 C 414.824219 249.675781 408.402344 239.875 408.402344 239.875 L 404.136719 263.660156 L 433.417969 248.800781 L 441.546875 252.425781 C 441.546875 252.425781 445.570312 255.195312 447.890625 244.425781 C 450.207031 233.660156 459.382812 209.234375 467.695312 206.351562 C 476.003906 203.46875 475.476562 205.574219 475.476562 205.574219 C 475.476562 205.574219 468.496094 203.082031 468.289062 194.894531 C 468.082031 186.707031 467.351562 177.6875 461.082031 173.277344 C 454.8125 168.863281 444.765625 169.527344 435.230469 172.601562 Z M 435.230469 172.601562 " fill-opacity="1" fill-rule="nonzero"/><path fill="#ff7c3b" d="M 497.972656 222.222656 C 497.410156 221.09375 496.691406 220 495.84375 218.949219 C 494.304688 217.027344 492.285156 215.195312 489.949219 213.394531 C 489.707031 213.421875 489.535156 213.441406 489.535156 213.441406 C 497.972656 222.222656 491.566406 236.984375 478.234375 251.394531 C 477.359375 252.339844 476.640625 253.265625 476.046875 254.167969 C 478.921875 251.652344 482.882812 249.992188 487.179688 249.261719 L 487.199219 249.242188 C 499.160156 237.332031 501.441406 229.089844 497.972656 222.222656 Z M 497.972656 222.222656 " fill-opacity="1" fill-rule="nonzero"/><path fill="#ff8076" d="M 504.949219 259.421875 C 517.113281 261.265625 526.109375 269.730469 525.726562 278.566406 C 525.34375 287.402344 519.242188 291.945312 519.242188 291.945312 C 519.242188 291.945312 523.339844 294.855469 526.675781 293.277344 C 530.011719 291.699219 532.871094 285.421875 532.859375 281.097656 C 532.847656 276.769531 531.269531 267.898438 525.726562 263.539062 C 520.183594 259.175781 511.828125 257.460938 504.949219 259.421875 Z M 504.949219 259.421875 " fill-opacity="1" fill-rule="nonzero"/><path fill="#bf2e0c" d="M 456.332031 224.03125 C 469.703125 227.9375 475.039062 235.59375 471.453125 236.949219 C 468.199219 238.179688 459.371094 228.929688 451.1875 234.015625 Z M 456.332031 224.03125 " fill-opacity="1" fill-rule="nonzero"/><path fill="#bf2e0c" d="M 450.628906 239.875 C 463.507812 243.636719 468.644531 251.011719 465.191406 252.316406 C 462.054688 253.5 453.554688 244.59375 445.675781 249.492188 Z M 450.628906 239.875 " fill-opacity="1" fill-rule="nonzero"/><path fill="#d6ff7d" d="M 501.003906 196.289062 L 509.117188 192.238281 C 509.117188 192.238281 519.898438 204.5 492.738281 214.964844 C 492.53125 215.042969 492.363281 215.121094 492.164062 215.203125 C 493.566406 216.421875 494.816406 217.664062 495.84375 218.949219 C 506.621094 215.089844 512.683594 210.140625 515.472656 205.566406 C 520.03125 198.078125 515.832031 191.550781 509.125 192.246094 C 513.929688 188.933594 518.921875 184.078125 522.140625 178.921875 C 526.492188 171.941406 527.605469 164.414062 520.578125 159.464844 C 519.875 158.96875 519.179688 158.542969 518.488281 158.171875 C 517.09375 158.074219 516.21875 158.054688 516.21875 158.054688 C 530.992188 167.625 501.003906 196.289062 501.003906 196.289062 Z M 501.003906 196.289062 " fill-opacity="1" fill-rule="nonzero"/><path fill="#d6ff7d" d="M 520.578125 182.414062 C 533.390625 187.691406 517.386719 201.445312 517.386719 201.445312 C 517.386719 201.445312 521.042969 205.730469 529.335938 194.503906 C 537.628906 183.273438 524.90625 175.664062 520.578125 182.414062 Z M 520.578125 182.414062 " fill-opacity="1" fill-rule="nonzero"/><path fill="#d6ff7d" d="M 513.855469 207.203125 C 519.753906 210.886719 516.015625 216.222656 497.980469 219.722656 C 497.980469 219.722656 499.066406 223.835938 510.699219 220.675781 C 522.332031 217.511719 523.769531 211.78125 522.523438 207.203125 C 521.273438 202.628906 516.867188 203.585938 513.855469 207.203125 Z M 513.855469 207.203125 " fill-opacity="1" fill-rule="nonzero"/><path fill="#619917" d="M 493.21875 178.300781 C 486.769531 169.835938 482.160156 170.203125 479.582031 185.113281 C 479.582031 185.113281 479.628906 181.480469 486.699219 181.179688 C 493.769531 180.878906 491.609375 185.238281 491.609375 185.238281 Z M 493.21875 178.300781 " fill-opacity="1" fill-rule="nonzero"/><path fill="#619917" d="M 476.785156 183.378906 C 471.535156 184.683594 471.414062 186.28125 471.78125 194.132812 C 472.148438 201.988281 476.960938 205.574219 476.960938 205.574219 Z M 476.785156 183.378906 " fill-opacity="1" fill-rule="nonzero"/><path fill="#d6ff7d" d="M 388.964844 239.871094 C 387.496094 222.351562 376.4375 227.472656 376.4375 227.472656 C 376.25 222.523438 374.59375 218.496094 372.273438 215.636719 L 372.160156 215.503906 L 371.691406 214.976562 C 366.664062 209.410156 359.054688 209.113281 356.363281 216.457031 C 356.417969 217.476562 356.46875 218.066406 356.46875 218.066406 C 367.457031 210.199219 371.667969 223.261719 372.277344 233.570312 C 372.277344 233.570312 382.863281 228.035156 383.585938 238.789062 C 384.15625 247.25 382.34375 259.5 381.542969 264.355469 C 381.863281 267.683594 382.0625 271.359375 382.109375 275.417969 L 383.746094 274.535156 C 383.746094 274.535156 390.433594 257.410156 388.964844 239.871094 Z M 388.964844 239.871094 " fill-opacity="1" fill-rule="nonzero"/><path fill="#619917" d="M 344.585938 295.433594 C 345.421875 294.59375 346.097656 293.675781 346.613281 292.6875 C 310.957031 298.109375 323.449219 277.019531 323.449219 277.019531 C 316.59375 279.859375 307.496094 277 302.238281 272.503906 C 299.3125 272.53125 297.199219 273.796875 295.855469 275.683594 C 296.308594 276.226562 296.597656 276.527344 296.597656 276.527344 C 298.808594 288.386719 314.101562 285.625 314.101562 285.625 C 314.101562 285.625 313.503906 305.667969 337.082031 299.4375 Z M 344.585938 295.433594 " fill-opacity="1" fill-rule="nonzero"/><path fill="#b2f0b9" d="M 435.726562 254.113281 L 548.929688 316.730469 L 544.246094 329.589844 L 550.179688 332.582031 L 558.238281 314.191406 L 433.851562 246.664062 Z M 435.726562 254.113281 " fill-opacity="1" fill-rule="nonzero"/><path fill="#004437" d="M 542.992188 336.878906 C 542.992188 336.878906 488.582031 309 470.84375 300.535156 C 453.109375 292.066406 440.515625 289.683594 439.808594 297.136719 L 439.277344 279.273438 C 439.277344 279.273438 442.460938 278.136719 446.648438 280.253906 C 450.835938 282.375 544.25 329.589844 544.25 329.589844 C 544.25 329.589844 545.898438 330.882812 542.992188 336.878906 Z M 542.992188 336.878906 " fill-opacity="1" fill-rule="nonzero"/><path fill="#ffffff" d="M 528.039062 366.25 L 525.789062 370.671875 C 525.734375 370.972656 525.644531 371.269531 525.628906 371.578125 C 537.355469 379.707031 532.128906 388.433594 518.9375 387.140625 C 537.007812 391.382812 545.144531 381.195312 528.039062 366.25 Z M 528.039062 366.25 " fill-opacity="1" fill-rule="nonzero"/><path fill="#004437" d="M 440.1875 291.699219 C 434.925781 282.25 387.835938 304.808594 387.835938 304.808594 L 379.546875 300.953125 L 433.847656 273.792969 L 439.277344 276.535156 Z M 440.1875 291.699219 " fill-opacity="1" fill-rule="nonzero"/><path fill="#ffffff" d="M 392.167969 185.238281 L 395.121094 194.476562 L 408.308594 207.988281 L 415.96875 206.351562 L 401.25 193.238281 L 398.792969 183.527344 Z M 392.167969 185.238281 " fill-opacity="1" fill-rule="nonzero"/><g clip-path="url(#bb03807085)"><path fill="#012828" d="M 559.570312 311.699219 L 528.851562 295.304688 C 541.71875 282.59375 536.199219 262.5625 518.226562 256.925781 C 519.179688 256.257812 520.214844 255.664062 521.1875 254.992188 C 528.652344 262.199219 539.8125 265.296875 549.832031 262.246094 C 551.9375 261.402344 556.351562 260.835938 555.890625 257.5625 C 552.726562 243.941406 535.886719 240.5 524.832031 246.175781 C 524.007812 242.207031 520.816406 238.675781 516.226562 240.140625 C 511.402344 242.015625 509.851562 247.023438 509.113281 251.71875 C 504.972656 248.058594 499.359375 246.589844 493.921875 246.15625 C 500.65625 238.023438 503.277344 231.921875 501.90625 224.835938 C 523.859375 222.890625 530.183594 213.585938 523.949219 204.285156 C 536.863281 195.621094 539.132812 182.152344 526.574219 176.972656 C 537.089844 154.195312 503.207031 141.257812 492.941406 169.867188 C 486.484375 161.019531 476.125 168.023438 474.597656 176.777344 C 472.613281 176.433594 470.730469 177.121094 469.097656 178.589844 C 456.496094 156.769531 422.542969 165.726562 416.082031 193.664062 C 415.492188 196.09375 414.898438 198.574219 414.304688 201.085938 L 403.777344 191.707031 L 401.535156 182.835938 C 401.164062 181.371094 399.695312 180.460938 398.226562 180.761719 L 355.910156 189.425781 C 355.109375 189.589844 354.421875 190.089844 354.019531 190.792969 C 352.667969 192.390625 356.34375 199.515625 356.605469 201.191406 L 350.097656 213.136719 C 341.214844 208.347656 331.949219 211.820312 333.191406 223.117188 C 290.75 174.445312 242.339844 243.730469 301.175781 257.753906 C 295.367188 260.523438 294.554688 266.039062 297.359375 270.785156 C 285.753906 276.894531 292.15625 296.824219 305.074219 296.597656 C 304.683594 302.289062 309.472656 307.324219 315.957031 307.523438 L 291.167969 320.75 C 289.894531 321.433594 289.339844 322.96875 289.886719 324.308594 L 296.855469 341.371094 C 297.007812 341.734375 297.226562 342.0625 297.507812 342.335938 C 297.753906 342.910156 305.722656 345.582031 306.371094 345.910156 L 313.316406 365.164062 C 311.304688 368.765625 309.726562 371.804688 308.765625 374.027344 C 301.585938 391.804688 311.773438 401.101562 325.972656 400.261719 C 326.121094 400.523438 329.890625 411.554688 330.117188 411.285156 C 330.921875 412.511719 333.394531 412.449219 334.648438 412.722656 C 337.609375 417.140625 342.382812 419.597656 347.992188 419.019531 C 352.851562 419.035156 359.910156 419.785156 364.222656 417.246094 L 428.191406 427.027344 C 428.691406 427.113281 429.207031 427.023438 429.683594 426.867188 C 431.851562 431.730469 435.835938 434.519531 440.550781 433.910156 C 447.472656 433.445312 457.882812 433.617188 461.941406 417.460938 L 473.609375 414.058594 C 476.160156 420.085938 481.003906 423.496094 486.621094 422.5625 C 494.359375 421.753906 506.011719 421.511719 509.992188 403.453125 C 511.148438 403.132812 512.691406 402.8125 513.21875 401.585938 L 519.074219 390.078125 C 535.460938 393.9375 550.574219 384.484375 531.53125 365.613281 L 546.222656 336.75 C 547.613281 336.128906 552 335.585938 552.65625 333.941406 C 552.828125 333.644531 560.679688 315.617188 560.824219 315.320312 C 561.417969 313.96875 560.871094 312.394531 559.570312 311.699219 Z M 539.214844 249.371094 C 543.191406 250.128906 547.582031 253.050781 549.539062 256.597656 C 541.863281 260.011719 532.671875 258.804688 525.855469 254.03125 C 531.96875 253.890625 538.183594 254.097656 544.078125 255.664062 C 547.605469 254.53125 529.960938 249.75 528.769531 249.734375 C 532.222656 248.890625 535.757812 248.59375 539.214844 249.371094 Z M 517.222656 245.433594 C 518.617188 244.832031 518.933594 246.230469 519.214844 247.808594 C 519.738281 251.167969 514.769531 252.691406 513.734375 256.078125 C 513.347656 256.046875 512.960938 256.027344 512.570312 256.019531 C 512.441406 255.78125 512.300781 255.542969 512.15625 255.308594 C 513.300781 251.84375 514.488281 247.394531 517.222656 245.433594 Z M 508.367188 256.4375 C 507.085938 256.917969 504.742188 256.976562 504.5 258.636719 C 504.5 259.332031 505.082031 259.890625 505.777344 259.867188 C 523.964844 259.101562 538.765625 278.066406 523.496094 292.445312 L 473.128906 265.566406 C 475.378906 250.015625 498.238281 247.789062 508.367188 256.4375 Z M 485.773438 246.667969 C 477.203125 248.359375 469.800781 253.71875 467.796875 262.71875 L 448.882812 252.628906 C 456.839844 220.964844 462.886719 198.160156 484.378906 212.859375 C 500.8125 223.683594 500.066406 231.941406 485.773438 246.667969 Z M 520.457031 211.414062 C 519.621094 214.355469 514.621094 217.847656 503.460938 219.027344 C 509.0625 216.472656 514.3125 212.917969 517.527344 207.753906 C 518 207.546875 518.460938 207.335938 518.910156 207.117188 C 520.292969 208.441406 520.867188 209.980469 520.457031 211.414062 Z M 529.074219 186.988281 C 529.660156 190.671875 527.003906 195.746094 520.117188 200.03125 C 520.101562 196.128906 517.964844 192.558594 514.597656 191.234375 C 518.058594 188.6875 521.210938 185.496094 523.660156 182.003906 C 526.730469 182.695312 528.675781 184.453125 529.074219 186.988281 Z M 500.613281 167.605469 C 504.382812 161.316406 511.1875 156.96875 517.734375 161.480469 C 532.0625 170.78125 509.839844 190.238281 500.808594 195.515625 C 498.105469 199.34375 509.421875 194.753906 510.675781 193.765625 C 514.257812 195.027344 515.535156 198.464844 513.972656 202.078125 C 510.703125 208.847656 503.359375 212.425781 496.621094 215.515625 C 494.765625 213.542969 492.570312 211.734375 490.222656 210.035156 C 496.3125 196.703125 502.355469 183.058594 510.980469 171.128906 C 511.269531 170.765625 510.726562 170.320312 510.421875 170.644531 C 500.628906 181.625 493.167969 194.347656 485.769531 207.023438 C 484.046875 205.921875 482.378906 205.019531 480.765625 204.320312 C 479.859375 197.398438 478.546875 186.679688 485.304688 182.679688 C 487.125 181.863281 488.691406 182.554688 489.917969 183.980469 C 489.808594 186.171875 489.863281 188.3125 490.078125 190.332031 C 490.15625 191.359375 491.746094 191.484375 491.972656 190.46875 C 494.265625 182.550781 496.308594 174.515625 500.613281 167.605469 Z M 491.226562 175.195312 C 490.847656 176.707031 490.554688 178.230469 490.332031 179.75 C 487.609375 176.75 482.734375 177.707031 479.960938 180.179688 C 480.644531 172.734375 486.050781 167.082031 491.226562 175.195312 Z M 473.570312 182.324219 C 473.574219 182.324219 473.683594 182.375 473.847656 182.5625 C 473.789062 185.101562 474.035156 187.65625 474.429688 190.152344 C 473.65625 194.183594 473.835938 198.597656 474.507812 202.570312 C 474.410156 202.558594 474.316406 202.554688 474.21875 202.546875 C 470.152344 194.945312 468.746094 186.332031 473.570312 182.324219 Z M 449.53125 172.238281 C 456.34375 172.621094 464.027344 176.371094 465.421875 185.703125 C 464.464844 190.230469 464.894531 196.316406 468.179688 203.15625 C 456.714844 207.304688 450.417969 221.097656 443.707031 249.863281 C 442.789062 249.519531 434.671875 244.652344 433.808594 244.984375 C 433.359375 244.988281 432.917969 245.105469 432.515625 245.3125 C 432.515625 245.3125 407.1875 258.832031 407.1875 258.832031 C 409.769531 246.746094 415.902344 218.417969 421.574219 194.992188 C 425.5625 178.503906 438.828125 171.632812 449.53125 172.238281 Z M 522.0625 371.753906 C 520.546875 371.175781 519.070312 370.621094 517.480469 370.015625 L 528.933594 345.269531 C 532.625 337.964844 523.808594 328.859375 516.191406 332.140625 C 513.871094 333.058594 512.132812 334.855469 511.289062 337.199219 L 501.675781 363.917969 C 500.308594 363.378906 498.917969 362.828125 497.503906 362.265625 L 505.351562 333.488281 C 506.742188 328.371094 503.589844 322.210938 498.167969 319.460938 C 492.628906 316.464844 485.75 318.765625 484.757812 325.082031 C 484.757812 325.082031 479.800781 354.957031 479.800781 354.957031 C 477.863281 354.125 475.910156 353.277344 473.957031 352.414062 L 476.472656 319.125 C 476.910156 313.359375 472.335938 306.351562 466.0625 303.167969 C 459.375 299.53125 451.886719 302.359375 452.136719 310.082031 C 452.136719 310.082031 453.273438 342.707031 453.273438 342.707031 C 450.757812 341.441406 448.304688 340.179688 445.851562 338.859375 L 442.390625 281.269531 L 542.394531 331.8125 C 542.394531 331.8125 522.082031 371.71875 522.0625 371.753906 Z M 506.945312 365.976562 L 516.605469 339.109375 C 517.550781 336.917969 519.613281 336.769531 521.53125 337.644531 C 523.597656 338.695312 524.636719 341.097656 523.804688 342.898438 L 512.1875 367.996094 C 510.496094 367.347656 508.746094 366.675781 506.945312 365.976562 Z M 485.152344 357.222656 L 490.328125 326.003906 C 490.800781 323.425781 493.34375 323.367188 495.609375 324.492188 C 498.890625 326.15625 500.503906 329.785156 499.898438 332.003906 L 492.226562 360.140625 C 489.90625 359.195312 487.542969 358.222656 485.152344 357.222656 Z M 459.027344 345.542969 C 459.375 344.777344 456.703125 306.820312 458.632812 307.582031 C 463.800781 305.363281 471.773438 314.914062 470.835938 318.699219 C 470.835938 318.699219 468.472656 349.960938 468.472656 349.960938 C 465.308594 348.519531 462.152344 347.046875 459.027344 345.542969 Z M 409.34375 316.980469 L 409.023438 313.445312 C 408.21875 309.773438 417.847656 302.078125 422.253906 304.554688 C 423.441406 304.191406 423.417969 325.480469 423.710938 325.960938 C 418.964844 323.050781 414.109375 320.011719 409.34375 316.980469 Z M 429.515625 329.488281 L 428.503906 305.476562 C 428.402344 303.042969 427.246094 301.015625 425.25 299.769531 C 417.425781 294.734375 402.855469 305.070312 403.367188 313.15625 C 396.703125 308.871094 390.382812 304.726562 384.960938 301.140625 L 433.835938 276.945312 L 436.550781 278.320312 L 439.996094 335.621094 C 436.679688 333.738281 433.15625 331.671875 429.515625 329.488281 Z M 400.671875 262.308594 L 388.574219 268.765625 C 391.242188 259.421875 398.425781 223.625 378.921875 223.988281 C 378.527344 221.601562 377.808594 219.441406 376.859375 217.539062 L 412.214844 210.035156 C 406.84375 233.289062 401.867188 256.65625 400.671875 262.308594 Z M 362.339844 236.609375 C 361.882812 231.335938 360.710938 226.101562 358.230469 221.597656 C 358.492188 212.195312 365.648438 211.683594 370.300781 217.636719 C 372.109375 219.960938 373.460938 223.285156 373.609375 227.5625 C 373.632812 229.5 375.847656 230.863281 377.597656 230.035156 C 390.722656 226.070312 385.671875 256.894531 384.234375 262.765625 C 383.488281 251.890625 377.226562 227.636719 362.339844 236.609375 Z M 358.582031 209.375 L 360.242188 206.328125 L 361.890625 208.179688 C 360.773438 208.367188 359.648438 208.757812 358.582031 209.375 Z M 400.382812 196.246094 L 409.925781 204.75 L 373.300781 212.523438 C 373.261719 212.496094 365.066406 203.246094 365.027344 203.207031 C 373.171875 201.503906 389.933594 198.050781 400.382812 196.246094 Z M 396.714844 186.835938 L 397.765625 190.972656 C 385.988281 193.066406 368.027344 196.804688 361.539062 198.167969 L 360.199219 194.308594 L 396.714844 186.832031 Z M 300.554688 263.414062 C 301.578125 261.292969 303.929688 259.785156 306.285156 258.589844 C 307.984375 258.851562 324.132812 260.183594 319.945312 257.160156 C 307.054688 253.941406 291.347656 252.414062 282.871094 241.328125 C 273.214844 222.203125 293.519531 205.929688 312.144531 214.480469 C 322.640625 218.640625 330.738281 226.546875 338.511719 234.667969 C 339.273438 235.527344 340.699219 234.527344 340.160156 233.511719 C 336.316406 228.617188 334.328125 215.113281 343.117188 216.023438 C 355.875 218.953125 356.871094 235.066406 356.863281 245.867188 C 356.785156 249.113281 361.476562 249.875 362.414062 246.730469 C 365.835938 235.800781 372.550781 240.292969 375.433594 248.722656 C 378.285156 256.574219 379.027344 265.300781 379.253906 273.742188 L 369.765625 278.804688 C 368.320312 276.6875 366.792969 274.613281 365.199219 272.578125 C 366.253906 271.609375 368.070312 251.121094 365.6875 254.097656 C 364.96875 258.867188 363.730469 263.855469 361.644531 268.25 C 358.21875 264.269531 354.515625 260.492188 350.574219 256.964844 C 351.410156 251.066406 350.335938 245.132812 348.109375 239.710938 C 347.859375 239.074219 346.84375 239.371094 346.980469 240.039062 C 347.683594 244.59375 347.539062 248.9375 346.339844 253.347656 C 333.476562 242.871094 318.421875 235.085938 302.386719 231.710938 C 301.550781 231.535156 301.289062 232.828125 302.082031 233.03125 C 317.144531 238.585938 331 247.40625 342.957031 258 C 337.109375 262.097656 330.53125 265.523438 323.429688 266.523438 C 322.671875 266.582031 322.714844 267.75 323.46875 267.769531 C 331.679688 267.988281 339.570312 265.246094 346.882812 261.617188 C 350.601562 265.167969 354.140625 268.910156 357.511719 272.804688 C 350.757812 276.617188 343.304688 279.410156 335.535156 279.957031 C 335.199219 279.976562 335.207031 280.480469 335.527344 280.511719 C 344.140625 281.445312 352.761719 279.8125 360.867188 276.800781 C 362.140625 278.363281 363.386719 279.949219 364.609375 281.554688 L 350.269531 289.210938 C 341.332031 291.085938 317.691406 294.246094 325.878906 278.449219 C 327.164062 276.304688 324.851562 273.46875 322.464844 274.371094 C 316.328125 277.476562 298.652344 271.707031 300.550781 263.414062 Z M 311.960938 300.257812 C 309.902344 298.238281 311.007812 294.46875 311.011719 294.445312 C 311.683594 292.527344 309.871094 290.433594 307.875 290.8125 C 297.195312 293.28125 292.726562 277.046875 301.5625 275.359375 C 306.484375 279.21875 312.695312 281.546875 318.90625 280.980469 C 316.132812 292.507812 327.066406 296.863281 336.644531 296.480469 C 327.125 302.773438 312.9375 302.75 311.960938 300.253906 Z M 431.023438 252.511719 L 431.023438 272.039062 L 379.527344 297.53125 C 375.976562 295.160156 373.046875 293.191406 370.984375 291.796875 C 366.265625 288.484375 359.261719 290.53125 357.027344 295.816406 C 354.667969 299.371094 350.042969 306.371094 344.53125 314.851562 L 300.9375 336.429688 L 296.078125 324.53125 C 296.078125 324.53125 403.457031 267.226562 431.023438 252.511719 Z M 309.671875 338.40625 L 338.542969 324.117188 C 335.960938 328.132812 333.300781 332.300781 330.679688 336.457031 C 324.605469 337.492188 320.277344 344.070312 322.660156 349.339844 C 320.648438 352.628906 318.742188 355.792969 317.007812 358.746094 Z M 314.046875 390.757812 C 311.375 387.441406 311.339844 382.292969 313.953125 376.269531 C 324.214844 355.367188 346.246094 322.882812 357.804688 304.894531 C 358.914062 306.652344 360.671875 307.675781 362.375 308.875 L 318.414062 385.085938 C 317.023438 387.320312 319.570312 390.1875 321.949219 389.101562 L 323.976562 394.726562 C 319.808594 394.796875 316.167969 393.386719 314.046875 390.757812 Z M 375.578125 318.03125 C 372.964844 320.769531 371.601562 324.203125 372.125 327.214844 L 380.699219 376.875 C 381.804688 382.675781 389.382812 383.382812 394.039062 381.269531 C 393.664062 384.851562 394.128906 388.859375 395.328125 391.875 L 375.597656 396.488281 C 376.117188 391.539062 375.601562 387.175781 374.050781 383.609375 C 377.472656 382.234375 364.863281 334.113281 365.046875 331.421875 C 364.484375 328.503906 362.042969 326.3125 359.140625 325.785156 L 367.027344 312.113281 C 369.644531 313.929688 372.515625 315.917969 375.578125 318.03125 Z M 441.410156 359.144531 L 442.710938 380.796875 L 437.425781 382.03125 C 439.203125 371.898438 436.992188 363.875 430.785156 359.570312 L 430.539062 353.710938 C 434.042969 355.550781 437.683594 357.367188 441.410156 359.144531 Z M 424.75 350.574219 L 425.019531 356.964844 C 421.890625 356.207031 418.074219 355.765625 414.632812 356.238281 C 414.074219 356.328125 413.507812 356.457031 412.933594 356.605469 L 411.65625 342.5 C 415.925781 345.363281 419.988281 347.917969 424.75 350.574219 Z M 405.617188 338.476562 L 407.476562 358.988281 C 404.714844 360.6875 402.21875 363.027344 400.144531 365.78125 L 395.769531 331.84375 C 399.039062 334.058594 402.34375 336.285156 405.617188 338.476562 Z M 389.527344 327.601562 L 395.34375 372.726562 C 395.734375 374.851562 388.210938 378.410156 386.269531 375.917969 C 386.269531 375.917969 377.695312 326.257812 377.695312 326.257812 C 377.472656 324.984375 378.398438 322.964844 380.316406 321.292969 C 383.28125 323.332031 386.371094 325.445312 389.527344 327.597656 Z M 358.746094 331.566406 C 359.171875 331.789062 359.414062 332.109375 359.511719 332.570312 L 368.71875 376.96875 C 366.371094 375.296875 363.441406 374.164062 359.921875 373.667969 L 351.402344 339.207031 L 355.871094 331.453125 C 357.15625 331.109375 358.171875 331.257812 358.746094 331.5625 Z M 347.328125 346.269531 L 354.039062 373.414062 C 354.035156 373.414062 354.03125 373.414062 354.023438 373.414062 C 352.917969 373.460938 351.820312 373.640625 350.75 373.921875 C 350.175781 374.070312 349.570312 374.242188 349.132812 374.394531 L 343.253906 353.328125 Z M 339.300781 360.183594 L 344 377.03125 C 342.109375 378.332031 340.363281 379.933594 338.808594 381.757812 L 334.585938 368.359375 Z M 330.753906 375 L 334.789062 387.796875 C 333.011719 391.289062 331.863281 395.144531 331.542969 399.050781 L 325.902344 383.410156 Z M 370.214844 412.453125 C 372.585938 409.601562 373.65625 406.238281 374.535156 402.539062 L 398.363281 396.964844 C 401.015625 399.984375 404.6875 401.730469 408.914062 401.714844 C 408.914062 401.714844 408.910156 401.722656 408.910156 401.722656 C 420.851562 402.625 432.148438 401.492188 435.980469 388.167969 L 445.632812 385.914062 L 500.195312 400.429688 L 428.429688 421.351562 Z M 509.21875 396.992188 L 448.371094 380.800781 L 447.234375 361.871094 C 449.492188 362.902344 451.765625 363.921875 454.050781 364.929688 C 453.160156 372.601562 466.925781 379.128906 471.886719 372.4375 C 473.585938 373.128906 475.277344 373.808594 476.953125 374.476562 C 477.835938 379.515625 486.53125 383.152344 491.195312 380.039062 C 493.226562 380.820312 495.207031 381.578125 497.125 382.308594 C 498.816406 385.398438 503.628906 387.097656 507.1875 386.148438 C 509.398438 386.980469 511.375 387.808594 513.527344 388.53125 Z M 534.148438 382.636719 C 530.246094 388.910156 512.558594 382.644531 502.816406 378.4375 C 495.476562 375.636719 488.191406 372.851562 480.714844 369.894531 C 463.257812 362.949219 445.101562 355.324219 428.722656 346.324219 C 407.996094 334.289062 387.3125 318.984375 367.78125 305.757812 C 364.488281 303.472656 359.398438 300.996094 363.167969 296.78125 C 364.460938 295.644531 366.375 295.503906 367.820312 296.476562 C 375.757812 301.828125 391.148438 312.140625 405.820312 321.449219 C 439.949219 344.832031 485.800781 364.746094 519.066406 376.65625 C 519.0625 376.65625 524.617188 378.765625 524.617188 378.765625 C 527.539062 379.980469 529.9375 375.703125 527.324219 373.875 L 528.847656 370.882812 C 534.472656 376.589844 535.316406 380.710938 534.148438 382.636719 Z M 548.789062 328.71875 L 436.675781 272.054688 L 436.675781 252.511719 C 458.808594 264.324219 531.359375 303.042969 554.601562 315.449219 Z M 548.789062 328.71875 " fill-opacity="1" fill-rule="nonzero"/></g><path fill="#164746" d="M 481.5 411.757812 C 482.484375 413.414062 484.257812 414.167969 486.175781 413.488281 C 487.917969 412.871094 489.351562 411.226562 490.078125 409.257812 Z M 481.5 411.757812 " fill-opacity="1" fill-rule="nonzero"/><path fill="#164746" d="M 436.785156 424.796875 C 437.652344 425.863281 438.988281 426.320312 440.453125 425.863281 C 441.867188 425.421875 443.078125 424.234375 443.824219 422.742188 Z M 436.785156 424.796875 " fill-opacity="1" fill-rule="nonzero"/><path fill="#fb7922" d="M 291.933594 304.863281 C 288.191406 300.34375 265.226562 311.851562 235.953125 323.109375 C 206.683594 334.367188 207.171875 339.246094 214.488281 338.761719 C 221.804688 338.28125 296.6875 310.613281 291.933594 304.863281 Z M 291.933594 304.863281 " fill-opacity="1" fill-rule="nonzero"/><path fill="#7cbd33" d="M 280.699219 268.152344 C 278.171875 265.097656 262.65625 272.875 242.882812 280.480469 C 223.113281 288.082031 223.441406 291.378906 228.382812 291.050781 C 233.328125 290.726562 283.910156 272.039062 280.699219 268.152344 Z M 280.699219 268.152344 " fill-opacity="1" fill-rule="nonzero"/><path fill="#ea3c25" d="M 300.765625 358.679688 C 299.707031 357.035156 274.664062 368.296875 270.0625 370.320312 C 265.464844 372.339844 266.363281 375.507812 272.039062 373.152344 C 277.714844 370.800781 303.382812 363.347656 300.765625 358.679688 Z M 300.765625 358.679688 " fill-opacity="1" fill-rule="nonzero"/><path fill="#ffffff" d="M 414.339844 377.695312 C 414.320312 381.050781 411.976562 384.328125 409.144531 385 C 406.347656 385.664062 404.140625 383.527344 404.175781 380.246094 C 404.214844 376.976562 406.472656 373.746094 409.253906 373.007812 C 412.070312 372.265625 414.363281 374.355469 414.339844 377.695312 Z M 414.339844 377.695312 " fill-opacity="1" fill-rule="nonzero"/><path fill="#ffffff" d="M 408.898438 387.144531 C 406.152344 387.765625 403.949219 385.519531 403.714844 382.589844 C 403.703125 382.746094 403.671875 382.902344 403.667969 383.0625 C 403.628906 386.34375 405.96875 388.875 408.898438 388.210938 C 411.867188 387.539062 414.609375 384.261719 414.632812 380.90625 C 414.632812 380.667969 414.617188 380.4375 414.597656 380.210938 C 414.402344 383.429688 411.753906 386.496094 408.898438 387.144531 Z M 408.898438 387.144531 " fill-opacity="1" fill-rule="nonzero"/><path fill="#ffffff" d="M 351.875 395.082031 C 351.851562 398.4375 349.511719 401.714844 346.679688 402.386719 C 343.882812 403.046875 341.671875 400.914062 341.710938 397.632812 C 341.746094 394.363281 344.007812 391.128906 346.785156 390.394531 C 349.605469 389.648438 351.898438 391.738281 351.875 395.082031 Z M 351.875 395.082031 " fill-opacity="1" fill-rule="nonzero"/><path fill="#ffffff" d="M 346.433594 404.527344 C 343.6875 405.148438 341.484375 402.90625 341.25 399.972656 C 341.238281 400.132812 341.203125 400.289062 341.203125 400.445312 C 341.164062 403.726562 343.503906 406.257812 346.433594 405.59375 C 349.398438 404.921875 352.144531 401.644531 352.164062 398.292969 C 352.167969 398.050781 352.152344 397.820312 352.128906 397.59375 C 351.9375 400.816406 349.289062 403.878906 346.433594 404.527344 Z M 346.433594 404.527344 " fill-opacity="1" fill-rule="nonzero"/></svg>